<svg xmlns="http://www.w3.org/2000/svg" width="623.461" height="607.371" viewBox="0 0 623.461 607.371"><g transform="translate(0 -624.816)"><path d="M180,0H390a0,0,0,0,1,0,0V286a0,0,0,0,1,0,0H0a0,0,0,0,1,0,0V180A180,180,0,0,1,180,0Z" transform="translate(0 835)" fill="#fff"/><path d="M180.71,99.984c17.773-39.049,73.243-39.049,91.016,0l19.428,42.684a50,50,0,0,0,23.633,24.248l45.241,22.012c37.5,18.245,37.5,71.677,0,89.922l-45.24,22.011a50,50,0,0,0-23.633,24.248l-19.428,42.684c-17.773,39.049-73.243,39.05-91.016,0l-19.428-42.684a50,50,0,0,0-23.633-24.248l-45.24-22.011c-37.5-18.245-37.5-71.676,0-89.922l45.241-22.012a50,50,0,0,0,23.633-24.248Z" transform="translate(206.992 624.816) rotate(23)" fill="#fff"/></g></svg>